<?xml version="1.0" encoding="UTF-8"?>
<svg width="40px" height="40px" viewBox="0 0 40 40" version="1.1" xmlns="http://www.w3.org/2000/svg" xmlns:xlink="http://www.w3.org/1999/xlink">
    <!-- Generator: Sketch 47.1 (45422) - http://www.bohemiancoding.com/sketch -->
    <title>invoices</title>
    <desc>Created with Sketch.</desc>
    <defs></defs>
    <g id="VD" stroke="none" stroke-width="1" fill="none" fill-rule="evenodd">
        <path d="M29.4,17 L14.4,17 C14.0688,17 13.8,17.2682 13.8,17.6 C13.8,17.9318 14.0688,18.2 14.4,18.2 L29.4,18.2 C29.7312,18.2 30,17.9318 30,17.6 C30,17.2682 29.7312,17 29.4,17 Z M17.5406775,8.71293095 L16.8322588,8.71293095 C17.0247812,8.95659211 17.1466099,9.25439573 17.1977487,9.60635074 L17.5406775,9.60635074 C17.7375479,9.60635074 17.897143,9.76594577 17.897143,9.96281622 C17.897143,10.1596867 17.7375479,10.3192817 17.5406775,10.3192817 L17.2112853,10.3192817 C17.1571384,10.8547346 16.9450661,11.2578223 16.5750621,11.528557 C16.2050582,11.7992916 15.6906701,11.9346569 15.0318825,11.9346569 L16.9509676,14.1654902 C17.0391068,14.2679473 17.0274999,14.4224561 16.9250428,14.5105953 C16.880644,14.5487896 16.8240194,14.5697941 16.7654527,14.5697941 L16.3953757,14.5697941 C16.291751,14.5697941 16.1932864,14.5245704 16.1257645,14.4459646 L13.8915127,11.8449583 C13.8586734,11.8067285 13.8404349,11.7581036 13.8400317,11.7077074 L13.8372903,11.3650329 C13.8366622,11.2865173 13.8998025,11.2223586 13.9783181,11.2217305 L14.959687,11.2217259 C15.3357073,11.2187178 15.6410312,11.1367466 15.8756679,10.9758099 C16.1103045,10.8148732 16.2592063,10.5960326 16.3223778,10.3192817 L14.0662957,10.3192817 C13.871886,10.3192817 13.7142857,10.1616814 13.7142857,9.96727168 C13.7168151,9.76522012 13.8777082,9.60635074 14.0753202,9.60635074 L16.3133533,9.60635074 C16.1689615,9.03479987 15.7267683,8.73699625 14.9867603,8.71293095 L14.0752916,8.71293095 C13.8784212,8.71293095 13.7188261,8.55333592 13.7188261,8.35646547 C13.7188261,8.15959503 13.8784212,8 14.0752916,8 L17.5406775,8 C17.7375479,8 17.897143,8.15959503 17.897143,8.35646547 C17.897143,8.55333592 17.7375479,8.71293095 17.5406775,8.71293095 Z M29.4,21.8 L14.4,21.8 C14.0688,21.8 13.8,22.0682 13.8,22.4 C13.8,22.7318 14.0688,23 14.4,23 L29.4,23 C29.7312,23 30,22.7318 30,22.4 C30,22.0682 29.7312,21.8 29.4,21.8 Z M29.4,26.6 L14.4,26.6 C14.0688,26.6 13.8,26.8682 13.8,27.2 C13.8,27.5318 14.0688,27.8 14.4,27.8 L29.4,27.8 C29.7312,27.8 30,27.5318 30,27.2 C30,26.8682 29.7312,26.6 29.4,26.6 Z M29.4,31.4 L14.4,31.4 C14.0688,31.4 13.8,31.6682 13.8,32 C13.8,32.3318 14.0688,32.6 14.4,32.6 L29.4,32.6 C29.7312,32.6 30,32.3318 30,32 C30,31.6682 29.7312,31.4 29.4,31.4 Z M31.8,10.7516 L31.8,2 L6,2 L6,35 L9,35 L9,38 L34.8,38 L34.8,13.7516 L31.8,10.7516 Z M26.4,7.0484 L31.8,12.4484 L32.7516,13.4 L26.4,13.4 L26.4,7.0484 Z M7.2,33.8 L7.2,3.2 L30.6,3.2 L30.6,9.5516 L26.0484,5 L9,5 L9,33.8 L7.2,33.8 Z M10.2,36.8 L10.2,35 L10.2,6.2 L25.2,6.2 L25.2,14.6 L33.6,14.6 L33.6,36.8 L10.2,36.8 Z" id="Invoice" fill="#FFFFFF" fill-rule="nonzero"></path>
    </g>
</svg>