<?xml version="1.0" encoding="UTF-8"?>
<svg width="40px" height="40px" viewBox="0 0 40 40" version="1.1" xmlns="http://www.w3.org/2000/svg" xmlns:xlink="http://www.w3.org/1999/xlink">
    <!-- Generator: Sketch 47.1 (45422) - http://www.bohemiancoding.com/sketch -->
    <title>payments</title>
    <desc>Created with Sketch.</desc>
    <defs></defs>
    <g id="VD" stroke="none" stroke-width="1" fill="none" fill-rule="evenodd">
        <path d="M34.1442827,22.5596674 C33.2012474,20.3891892 31.8989605,18.2860707 30.2523909,16.3176715 C28.2615385,13.9226611 26.2781705,12.3209979 25.2677755,11.5800416 L29.0848233,4.4997921 C29.2719335,4.14802495 29.2120582,3.71392931 28.9201663,3.43700624 C27.9322245,2.47151767 26.8844075,2 25.7168399,2 C24.6465696,2 23.6661123,2.404158 22.8128898,2.76340956 C22.1392931,3.04033264 21.5031185,3.30977131 20.9866944,3.30977131 C20.8295218,3.30977131 20.6948025,3.28731809 20.5600832,3.23492723 C18.7787942,2.58378378 17.4091476,2.17962578 16.0844075,2.17962578 C14.4079002,2.17962578 12.9783784,2.85322245 11.5787942,4.29022869 C11.2869023,4.58960499 11.2419958,5.06112266 11.4740125,5.41288981 L15.5904366,11.6324324 C14.5725572,12.3883576 12.6266112,13.975052 10.6731809,16.3176715 C9.03409563,18.2860707 7.72432432,20.3891892 6.78128898,22.5596674 C5.5987526,25.2914761 5,28.1430353 5,31.0320166 C5,34.8715177 8.12848233,38 11.9679834,38 L28.9575884,38 C32.7970894,38 35.9255717,34.8715177 35.9255717,31.0320166 C35.9255717,28.1430353 35.3268191,25.2914761 34.1442827,22.5596674 Z M13.3900208,5.03866944 C14.2582121,4.29022869 15.0889813,3.96091476 16.0844075,3.96091476 C17.1471933,3.96091476 18.3446985,4.32016632 19.9388773,4.91143451 C20.2681913,5.03118503 20.6199584,5.09106029 20.97921,5.09106029 C21.8548857,5.09106029 22.6931393,4.74677755 23.4939709,4.40997921 C24.2648649,4.08814969 24.9983368,3.78128898 25.7093555,3.78128898 C26.0536383,3.78128898 26.5401247,3.84116424 27.1538462,4.27525988 L23.5613306,10.9513514 L17.3043659,10.9513514 L13.3900208,5.03866944 Z M28.9575884,36.2037422 L11.9679834,36.2037422 C9.11642412,36.2037422 6.7962578,33.8835759 6.7962578,31.0320166 C6.7962578,26.2345114 8.55509356,21.6839917 12.0128898,17.5076923 C14.1983368,14.8656965 16.4212058,13.2266112 17.0948025,12.7476091 L23.8158004,12.7476091 C24.4968815,13.2191268 26.7122661,14.8656965 28.8977131,17.5076923 C32.3629938,21.6839917 34.1143451,26.227027 34.1143451,31.0320166 C34.1293139,33.8835759 31.8091476,36.2037422 28.9575884,36.2037422 Z M24.1539062,19.5192308 L22.6442909,19.5192308 C23.0545493,20.0384641 23.3141621,20.6730732 23.423137,21.4230769 L24.1539062,21.4230769 C24.5734302,21.4230769 24.9135216,21.7631683 24.9135216,22.1826923 C24.9135216,22.6022163 24.5734302,22.9423077 24.1539062,22.9423077 L23.4519832,22.9423077 C23.336598,24.083339 22.8846794,24.9423048 22.0962139,25.5192308 C21.3077485,26.0961567 20.2116056,26.3846154 18.8077524,26.3846154 L22.8972553,31.1384427 C23.0850768,31.3567751 23.0603428,31.686028 22.8420104,31.8738495 C22.747398,31.9552402 22.6267331,32 22.5019294,32 L21.7133084,32 C21.4924878,32 21.2826633,31.90363 21.1387764,31.7361238 L16.3776644,26.1934709 C16.3076851,26.1120044 16.2688195,26.0083866 16.2679603,25.9009941 L16.2621185,25.1707668 C16.26078,25.0034527 16.3953298,24.8667328 16.5626438,24.8653943 L18.6539062,24.8653846 C19.4551923,24.8589743 20.1058268,24.6842966 20.6058293,24.3413462 C21.1058318,23.9983957 21.4231363,23.5320542 21.5577524,22.9423077 L16.7501209,22.9423077 C16.3358406,22.9423077 16,22.6064671 16,22.1921867 C16.0053901,21.761622 16.3482477,21.4230769 16.7693517,21.4230769 L21.5385216,21.4230769 C21.2308278,20.2051221 20.2885295,19.5705131 18.7115986,19.5192308 L16.7692909,19.5192308 C16.3497669,19.5192308 16.0096755,19.1791394 16.0096755,18.7596154 C16.0096755,18.3400914 16.3497669,18 16.7692909,18 L24.1539062,18 C24.5734302,18 24.9135216,18.3400914 24.9135216,18.7596154 C24.9135216,19.1791394 24.5734302,19.5192308 24.1539062,19.5192308 Z" id="Payments" fill="#FFFFFF" fill-rule="nonzero"></path>
    </g>
</svg>