<?xml version="1.0" encoding="UTF-8"?>
<svg width="40px" height="40px" viewBox="0 0 40 40" version="1.1" xmlns="http://www.w3.org/2000/svg" xmlns:xlink="http://www.w3.org/1999/xlink">
    <!-- Generator: Sketch 47.1 (45422) - http://www.bohemiancoding.com/sketch -->
    <title>po</title>
    <desc>Created with Sketch.</desc>
    <defs></defs>
    <g id="VD" stroke="none" stroke-width="1" fill="none" fill-rule="evenodd">
        <path d="M30.8114031,8.34776154 L24.5359994,2 L6,2 L6,38 L34.0760614,38 L34.0760614,11.6124198 L30.8114031,8.34776154 Z M28.1996765,15.1473919 L11.8763849,15.1473919 C11.5159667,15.1473919 11.2234533,15.4392523 11.2234533,15.8003235 C11.2234533,16.1613947 11.5159667,16.4532552 11.8763849,16.4532552 L28.1996765,16.4532552 C28.5600948,16.4532552 28.8526081,16.1613947 28.8526081,15.8003235 C28.8526081,15.4392523 28.5600948,15.1473919 28.1996765,15.1473919 Z M15.2942747,7.2611185 C15.2613499,7.22385962 15.2267615,7.18706195 15.191465,7.15177967 C15.1561684,7.11648091 15.1193894,7.08189044 15.0821329,7.04896361 C15.0271374,7.00033929 14.9431371,7.00554433 14.8945652,7.06054318 C14.8459274,7.11552556 14.8510992,7.19951452 14.9060947,7.24812237 C14.939283,7.27744191 14.9720596,7.30827685 15.0035185,7.33972123 C15.0349445,7.37118209 15.0657775,7.40394421 15.0951117,7.43713459 C15.1213659,7.46684946 15.1579637,7.48201985 15.1947426,7.48201985 C15.2260204,7.48201985 15.2574134,7.47103325 15.2826958,7.44869769 C15.3377078,7.40010632 15.3428795,7.31611735 15.2942747,7.2611185 Z M17.5082301,9.39324357 L17.3170731,9.70672519 C17.2561269,9.80672386 17.2325406,9.92551955 17.2507434,10.0412184 L17.3077106,10.403295 C17.3196838,10.4794373 17.2883915,10.5548954 17.2260768,10.6002315 L16.9297898,10.815731 C16.8349585,10.8847254 16.7675125,10.9854983 16.7399292,11.0994867 L16.6536502,11.4559818 C16.6355553,11.5307197 16.5779039,11.5883891 16.503148,11.6064839 L16.1466529,11.6927449 C16.0326465,11.7203283 15.9318556,11.7877743 15.8628612,11.8826236 L15.6474158,12.1788206 C15.6020797,12.2411712 15.5266395,12.2724276 15.4504612,12.2604364 L15.0884927,12.2034692 C14.9727758,12.1852663 14.8539621,12.2088166 14.7539454,12.2697989 L14.4405358,12.4609198 C14.3749443,12.5008905 14.2934186,12.5008905 14.2278631,12.4609198 L13.9143815,12.2697809 C13.8364207,12.2222302 13.7470449,12.1974556 13.6566067,12.1974556 C13.6310399,12.1974556 13.6053471,12.1994361 13.5798703,12.2034512 L13.2177757,12.2604184 C13.1416154,12.2724096 13.0661752,12.2410992 13.0208391,12.1787846 L12.8053397,11.8825156 C12.7363453,11.7876843 12.6355724,11.7202383 12.521584,11.6926549 L12.1650889,11.6063759 C12.090351,11.5882811 12.0326816,11.5306297 12.0145867,11.4558738 L11.9283257,11.0993967 C11.9007424,10.9853903 11.8333144,10.8845814 11.7384471,10.815587 L11.4422681,10.6001235 C11.3799355,10.5547874 11.3486611,10.4793113 11.3606523,10.403169 L11.4176195,10.0412004 C11.4358224,9.92548354 11.4122721,9.80668785 11.3512898,9.70667117 L11.1601688,9.39322557 C11.1201802,9.32763407 11.1201802,9.24612633 11.1601688,9.18055284 L11.3513258,8.86707122 C11.4122901,8.76707255 11.4358584,8.64827686 11.4176555,8.532578 L11.3606883,8.17050142 C11.3487151,8.09435911 11.3800075,8.01890098 11.4423221,7.97356489 L11.7386091,7.75806541 C11.8334404,7.689071 11.9008864,7.58829812 11.9284698,7.47430972 L12.0147488,7.11781463 C12.0328436,7.04307669 12.090495,6.98540731 12.1652509,6.96731248 L12.521746,6.88105148 C12.6357524,6.85346812 12.7365433,6.78602213 12.8055197,6.69117283 L13.0209652,6.39497582 C13.0663013,6.3326432 13.1417414,6.30133284 13.2179197,6.31334205 L13.5798883,6.37030924 C13.6956231,6.38854811 13.8144368,6.36496182 13.9144355,6.30397955 L14.2278451,6.11285857 C14.2934366,6.07288791 14.3749623,6.07288791 14.4405178,6.11285857 L14.7539994,6.30399755 C14.8539981,6.36499783 14.9728298,6.38856611 15.0885107,6.37034525 L15.4506053,6.31337806 C15.5267296,6.30144087 15.6022057,6.33269721 15.6475418,6.39501183 L15.8630413,6.69128086 C15.9320357,6.78611215 16.0328086,6.85355814 16.146797,6.8811415 L16.503292,6.96742051 C16.57803,6.98551534 16.6356994,7.04316672 16.6537942,7.11792266 L16.7400552,7.47439974 C16.7676386,7.58840615 16.8350665,7.68921504 16.9299338,7.75820945 L17.2261309,7.97365491 C17.2884635,8.01899101 17.3197378,8.09446714 17.3077466,8.17060945 L17.2507794,8.532578 C17.2325766,8.64829487 17.2561269,8.76709055 17.3171091,8.86710723 L17.5082301,9.18055284 C17.5482368,9.24614433 17.5482368,9.32765208 17.5082301,9.39324357 Z M28.1996765,20.3708452 L11.8763849,20.3708452 C11.5159667,20.3708452 11.2234533,20.6627056 11.2234533,21.0237768 C11.2234533,21.384848 11.5159667,21.6767085 11.8763849,21.6767085 L28.1996765,21.6767085 C28.5600948,21.6767085 28.8526081,21.384848 28.8526081,21.0237768 C28.8526081,20.6627056 28.5600948,20.3708452 28.1996765,20.3708452 Z M28.1996765,25.5942984 L11.8763849,25.5942984 C11.5159667,25.5942984 11.2234533,25.8861589 11.2234533,26.2472301 C11.2234533,26.6083013 11.5159667,26.9001618 11.8763849,26.9001618 L28.1996765,26.9001618 C28.5600948,26.9001618 28.8526081,26.6083013 28.8526081,26.2472301 C28.8526081,25.8861589 28.5600948,25.5942984 28.1996765,25.5942984 Z M27.1604209,31.8394808 C26.4052283,31.0733832 25.868981,30.6865414 25.5516789,30.6789554 C25.175166,30.6699538 24.9340074,31.9166484 24.5814953,31.8394808 C23.5517689,31.6140658 23.2339543,29.6051644 22.5304322,29.6051644 C22.0550431,29.6051644 21.3440534,30.1322926 20.3974629,31.1865491 C20.1990563,31.1865491 20.0380307,31.4784096 20.0380307,31.8394808 C20.0380307,32.200552 20.1990563,32.4924124 20.3974629,32.4924124 C21.3426388,31.4397284 22.0536286,30.9133863 22.5304322,30.9133863 C23.3499028,30.9133863 23.3177891,32.3863177 24.5814953,32.69227 C24.8690669,32.7618931 25.1316453,31.6309742 25.5516789,31.6237589 C25.9729835,31.6165217 26.7852717,31.9060729 27.9885432,32.4924124 C28.1869498,32.4924124 28.5481487,32.200552 28.5481487,31.8394808 C28.5481487,31.4784096 27.3588275,31.8394808 27.1604209,31.8394808 Z M24.9350182,4.31786733 L30.8114031,10.1942523 L31.8469527,11.2298019 L24.9350182,11.2298019 L24.9350182,4.31786733 Z M7.30586332,36.6941367 L7.30586332,3.39462196 L23.6291548,3.39462196 L23.6291548,12.5356652 L32.7701981,12.5356652 L32.7701981,36.6941367 L7.30586332,36.6941367 Z" id="Purchase-Order" fill="#FFFFFF" fill-rule="nonzero"></path>
    </g>
</svg>