<?xml version="1.0" encoding="UTF-8"?>
<svg width="40px" height="40px" viewBox="0 0 40 40" version="1.1" xmlns="http://www.w3.org/2000/svg" xmlns:xlink="http://www.w3.org/1999/xlink">
    <!-- Generator: Sketch 47.1 (45422) - http://www.bohemiancoding.com/sketch -->
    <title>quotation</title>
    <desc>Created with Sketch.</desc>
    <defs></defs>
    <g id="VD" stroke="none" stroke-width="1" fill="none" fill-rule="evenodd">
        <path d="M30.8114031,8.34776154 L24.5359994,2 L6,2 L6,38 L34.0760614,38 L34.0760614,11.6124198 L30.8114031,8.34776154 Z M24.9350182,4.31786733 L30.8114031,10.1942523 L31.8469527,11.2298019 L24.9350182,11.2298019 L24.9350182,4.31786733 Z M7.30586332,36.6941367 L7.30586332,3.39462196 L23.6291548,3.39462196 L23.6291548,12.5356652 L32.7701981,12.5356652 L32.7701981,36.6941367 L7.30586332,36.6941367 Z M14.0356955,18.2111386 L11.2964497,20.8240071 L10.1597897,19.7081815 C9.96852145,19.5204191 9.6612564,19.5232612 9.47349401,19.7145294 C9.46247584,19.7257533 9.45200982,19.7375062 9.442133,19.7497465 C9.25287561,19.9842917 9.27711284,20.3252338 9.49764646,20.5306474 L11.0888835,22.0127876 C11.2053513,22.1212702 11.3862665,22.1199148 11.5010959,22.0096993 L14.6783,18.9601555 C14.8777417,18.7687274 14.8929607,18.4548604 14.7129752,18.2450344 C14.5449318,18.0491302 14.2498939,18.0265447 14.0539898,18.1945882 C14.0477471,18.199943 14.0416469,18.2054617 14.0356955,18.2111386 L14.0356955,18.2111386 Z M13.7209305,28.1291794 L10.9816847,30.7420479 L9.84502467,29.6262223 C9.65375642,29.4384599 9.34649138,29.441302 9.15872899,29.6325702 C9.14771082,29.6437941 9.1372448,29.655547 9.12736798,29.6677873 C8.93811058,29.9023325 8.96234781,30.2432746 9.18288143,30.4486882 L10.7741185,31.9308284 C10.8905862,32.039311 11.0715015,32.0379556 11.1863308,31.9277401 L14.363535,28.8781963 C14.5629767,28.6867682 14.5781957,28.3729012 14.3982102,28.1630752 C14.2301668,27.967171 13.9351289,27.9445855 13.7392248,28.112629 C13.7329821,28.1179838 13.7268819,28.1235026 13.7209305,28.1291794 L13.7209305,28.1291794 Z M26.9396361,20.5640153 L17.119183,20.5640153 C16.7560306,20.5640153 16.4615385,20.8584254 16.4615385,21.2216598 C16.4615385,21.5848942 16.7559486,21.8793043 17.119183,21.8793043 L26.9396361,21.8793043 C27.3027885,21.8793043 27.5972806,21.5848942 27.5972806,21.2216598 C27.5972806,20.8584254 27.3027885,20.5640153 26.9396361,20.5640153 Z M24.1337572,17.5640153 L17.119183,17.5640153 C16.7560306,17.5640153 16.4615385,17.8584254 16.4615385,18.2216598 C16.4615385,18.5848942 16.7559486,18.8793043 17.119183,18.8793043 L24.1337572,18.8793043 C24.4969096,18.8793043 24.7914017,18.5848942 24.7914017,18.2216598 C24.7914017,17.8584254 24.4969916,17.5640153 24.1337572,17.5640153 Z M26.4780977,31 L16.6576445,31 C16.2944922,31 16,31.2944102 16,31.6576445 C16,32.0207969 16.2944102,32.3152891 16.6576445,32.3152891 L26.4780977,32.3152891 C26.84125,32.3152891 27.1357422,32.0208789 27.1357422,31.6576445 C27.1356602,31.2944102 26.84125,31 26.4780977,31 Z M23.6722188,28 L16.6576445,28 C16.2944922,28 16,28.2944102 16,28.6576445 C16,29.0208789 16.2944102,29.3152891 16.6576445,29.3152891 L23.6722188,29.3152891 C24.0353711,29.3152891 24.3298633,29.0208789 24.3298633,28.6576445 C24.3298633,28.2944102 24.0354531,28 23.6722188,28 Z M19.9396361,9.56401528 L10.119183,9.56401528 C9.75603065,9.56401528 9.46153846,9.85842544 9.46153846,10.2216598 C9.46153846,10.5848942 9.75594862,10.8793043 10.119183,10.8793043 L19.9396361,10.8793043 C20.3027885,10.8793043 20.5972806,10.5848942 20.5972806,10.2216598 C20.5972806,9.85842544 20.3027885,9.56401528 19.9396361,9.56401528 Z M17.1337572,6.56401528 L10.119183,6.56401528 C9.75603065,6.56401528 9.46153846,6.85842544 9.46153846,7.22165981 C9.46153846,7.58489419 9.75594862,7.87930434 10.119183,7.87930434 L17.1337572,7.87930434 C17.4969096,7.87930434 17.7914017,7.58489419 17.7914017,7.22165981 C17.7914017,6.85842544 17.4969916,6.56401528 17.1337572,6.56401528 Z" id="Quotation" fill="#FFFFFF" fill-rule="nonzero"></path>
    </g>
</svg>