<?xml version="1.0" encoding="UTF-8"?>
<svg width="40px" height="40px" viewBox="0 0 40 40" version="1.1" xmlns="http://www.w3.org/2000/svg" xmlns:xlink="http://www.w3.org/1999/xlink">
    <!-- Generator: Sketch 47.1 (45422) - http://www.bohemiancoding.com/sketch -->
    <title>requests</title>
    <desc>Created with Sketch.</desc>
    <defs></defs>
    <g id="VD" stroke="none" stroke-width="1" fill="none" fill-rule="evenodd">
        <path d="M37.1674603,22.7834728 C36.6465811,22.4222638 35.9800291,22.3403848 35.3854465,22.5616191 L35.3186798,22.5866411 L29.0377807,7.16923585 L13.1966114,12.8270618 L9.93569697,5 L3.74187954,5 C2.78150462,5 2,5.78150462 2,6.74187954 C2,7.70225446 2.78150462,8.48388295 3.74187954,8.48388295 L7.42321349,8.48388295 L15.6335333,27.6846922 C15.0918437,28.5080654 14.7742375,29.4911088 14.7742375,30.548475 C14.7742375,33.4302191 17.1188752,35.7743613 20,35.7743613 C22.8811247,35.7743613 25.2257625,33.430343 25.2257625,30.548475 C25.2257625,30.4909987 25.2188257,30.4346372 25.2170915,30.3777802 L36.7261065,26.1930329 C37.4879156,25.9154371 38,25.1849675 38,24.3738576 C38.0001238,23.7391406 37.688835,23.1451773 37.1674603,22.7834728 Z M20,28.2258863 C18.7190459,28.2258863 17.6774113,29.2675209 17.6774113,30.548475 C17.6774113,31.8294291 18.7190459,32.8710636 20,32.8710636 C21.2809541,32.8710636 22.3225886,31.8294291 22.3225886,30.548475 C22.3225886,29.2675209 21.2809541,28.2258863 20,28.2258863 Z M20,31.7097693 C19.3595849,31.7097693 18.8387057,31.1888901 18.8387057,30.548475 C18.8387057,29.9080599 19.3595849,29.3871807 20,29.3871807 C20.6404151,29.3871807 21.1612943,29.9080599 21.1612943,30.548475 C21.1612943,31.1888901 20.640539,31.7097693 20,31.7097693 Z M21.4940129,11.0967023 L23.2894048,15.1362723 L21.465027,15.8661225 L19.6395342,11.7591665 L21.4940129,11.0967023 Z M18.542653,12.1506001 L20.8576855,17.3596399 L24.8397792,15.7669016 L22.5903986,10.7053925 L28.3817578,8.63711187 L34.2312128,22.9947974 L23.7557806,26.9235025 C22.8046961,25.9381056 21.4738218,25.3227125 20.0001239,25.3227125 C19.477015,25.3227125 18.9729823,25.4022379 18.4962013,25.545681 L13.6436633,13.9000358 L18.542653,12.1506001 Z M3.74187954,7.32258863 C3.42191973,7.32258863 3.16129432,7.06245871 3.16129432,6.74187954 C3.16129432,6.42130037 3.4220436,6.16117045 3.74187954,6.16117045 L9.16100528,6.16117045 L17.4288015,26.0042529 C17.0839435,26.1999697 16.7657179,26.4350776 16.4753633,26.7010295 L8.18972968,7.32258863 L3.74187954,7.32258863 Z M20,34.6129432 C17.758671,34.6129432 15.9355318,32.7891846 15.9355318,30.5483511 C15.9355318,28.3075176 17.7587949,26.4837591 20,26.4837591 C22.2412051,26.4837591 24.0644682,28.3075176 24.0644682,30.5483511 C24.0644682,32.7891846 22.241329,34.6129432 20,34.6129432 Z M36.3295942,25.1013543 L25.0447864,29.204842 C24.919924,28.7368558 24.7323827,28.2950066 24.4902141,27.8879652 L35.7931072,23.64921 C36.0346564,23.5580406 36.2936715,23.5906188 36.506111,23.7375303 C36.7174356,23.8844417 36.8388295,24.1167006 36.8388295,24.3738576 C36.8388295,24.6984007 36.6338224,24.9904894 36.3295942,25.1013543 Z" id="Request" fill="#FFFFFF" fill-rule="nonzero"></path>
    </g>
</svg>