<?xml version="1.0" encoding="UTF-8"?>
<svg width="40px" height="40px" viewBox="0 0 40 40" version="1.1" xmlns="http://www.w3.org/2000/svg" xmlns:xlink="http://www.w3.org/1999/xlink">
    <!-- Generator: Sketch 47.1 (45422) - http://www.bohemiancoding.com/sketch -->
    <title>do</title>
    <desc>Created with Sketch.</desc>
    <defs></defs>
    <g id="VD" stroke="none" stroke-width="1" fill="none" fill-rule="evenodd">
        <path d="M35.4799248,17.7504979 L34.5476495,13.9841913 C34.8025328,13.9295094 34.9937832,13.7011236 34.9937832,13.4275009 L34.9937832,12.8202474 C34.9937832,11.5017738 33.9317108,10.4291559 32.6263567,10.4291559 L28.3800359,10.4291559 L28.3800359,9.17658465 C28.3800359,8.52778713 27.8574724,8 27.2150961,8 L5.56991322,8 C4.92753697,8 4.40497345,8.52778713 4.40497345,9.17658465 L4.40497345,19.5001065 C4.40497345,19.8144921 4.6573255,20.0694377 4.96866986,20.0694377 C5.27994391,20.0694377 5.53236627,19.8145631 5.53236627,19.5001065 L5.53236627,9.17658465 C5.53236627,9.15563508 5.54917099,9.13866238 5.56991322,9.13866238 L27.2150258,9.13866238 C27.235768,9.13866238 27.2525728,9.15563508 27.2525728,9.17658465 L27.2525728,19.5002486 C27.2525728,19.8146341 27.5049248,20.0695797 27.8162692,20.0695797 C28.1275432,20.0695797 28.3799656,19.8147051 28.3799656,19.5002486 L28.3799656,18.8548598 L35.0293614,18.8548598 C35.0299239,18.8548598 35.0303458,18.8550018 35.030838,18.8550018 C35.0314005,18.8550018 35.0318926,18.8549308 35.0323848,18.8549308 C35.850613,18.8554989 36.5453722,19.3979152 36.7840133,20.1453533 L35.0312598,20.1453533 C34.7199858,20.1453533 34.4675634,20.4002279 34.4675634,20.7146845 L34.4675634,21.9291914 C34.4675634,22.9128269 35.2598462,23.7130295 36.2337466,23.7130295 L36.8726072,23.7130295 L36.8726072,26.2179589 L35.3987137,26.2179589 C34.9145408,24.8059579 33.5855617,23.788874 32.0249727,23.788874 C30.4643837,23.788874 29.1353342,24.8059579 28.6512317,26.2179589 L28.379825,26.2179589 L28.379825,21.9291204 C28.379825,21.6147348 28.1274729,21.3597892 27.8161285,21.3597892 C27.5048545,21.3597892 27.2524321,21.6146638 27.2524321,21.9291204 L27.2524321,26.2178169 L15.5574718,26.2178169 C15.073299,24.8058159 13.7443198,23.788732 12.1837308,23.788732 C10.6231418,23.788732 9.29409237,24.8058159 8.80998986,26.2178169 L5.56991322,26.2178169 C5.54917099,26.2178169 5.53236627,26.2008442 5.53236627,26.1798946 L5.53236627,24.9273944 L7.97495698,24.9273944 C8.28623103,24.9273944 8.5386534,24.6725198 8.5386534,24.3580632 C8.5386534,24.0436066 8.28630134,23.788732 7.97495698,23.788732 L2.56369641,23.788732 C2.25242237,23.788732 2,24.0436066 2,24.3580632 C2,24.6725198 2.25235206,24.9273944 2.56369641,24.9273944 L4.40504376,24.9273944 L4.40504376,26.1798946 C4.40504376,26.8286921 4.92760728,27.3564792 5.56998354,27.3564792 L8.61480198,27.3564792 C8.61466136,27.36912 8.61381761,27.3816897 8.61381761,27.3944015 C8.61381761,29.3825512 10.2153285,31 12.1837308,31 C14.1521331,31 15.7536441,29.3825512 15.7536441,27.3944015 C15.7536441,27.3816187 15.7528003,27.36912 15.7526597,27.3564792 L28.4560439,27.3564792 C28.4559032,27.36912 28.4550595,27.3816897 28.4550595,27.3944015 C28.4550595,29.3825512 30.0565704,31 32.0249727,31 C33.993375,31 35.5948859,29.3825512 35.5948859,27.3944015 C35.5948859,27.3816187 35.5940422,27.36912 35.5939016,27.3564792 L37.4363036,27.3564792 C37.7475776,27.3564792 38,27.1016046 38,26.787148 L38,20.7145424 C38.0000703,19.2152634 36.9048104,17.9695807 35.4799248,17.7504979 Z M28.3800359,11.5677472 L32.6263567,11.5677472 C33.3101471,11.5677472 33.8664607,12.1296218 33.8664607,12.8202474 L33.8664607,12.8581697 L28.3800359,12.8581697 L28.3800359,11.5677472 Z M28.3800359,17.7162684 L28.3800359,13.9967611 L33.3887566,13.9967611 L34.3094303,17.7162684 L28.3800359,17.7162684 Z M12.1837308,29.8615507 C10.8368923,29.8615507 9.74114012,28.7549163 9.74114012,27.3945435 C9.74114012,26.0341708 10.8368923,24.9275364 12.1837308,24.9275364 C13.5305694,24.9275364 14.6263215,26.0341708 14.6263215,27.3945435 C14.6263215,28.7549163 13.5305694,29.8615507 12.1837308,29.8615507 Z M32.0251133,29.8615507 C30.6782748,29.8615507 29.5825226,28.7549163 29.5825226,27.3945435 C29.5825226,26.0341708 30.6782748,24.9275364 32.0251133,24.9275364 C33.3719519,24.9275364 34.467704,26.0341708 34.467704,27.3945435 C34.467704,28.7549163 33.3719519,29.8615507 32.0251133,29.8615507 Z M36.8727478,22.5743671 L36.2338872,22.5743671 C35.8816209,22.5743671 35.5950266,22.284908 35.5950266,21.9291204 L35.5950266,21.2838736 L36.8726775,21.2838736 L36.8726775,22.5743671 L36.8727478,22.5743671 Z M12.1837308,26.2179589 C12.8261071,26.2179589 13.3486706,26.745746 13.3486706,27.3945435 C13.3486706,28.0433411 12.8261071,28.5711282 12.1837308,28.5711282 C11.5413546,28.5711282 11.0187911,28.0433411 11.0187911,27.3945435 C11.0187911,26.745746 11.5413546,26.2179589 12.1837308,26.2179589 Z M32.0251133,26.2179589 C32.6674896,26.2179589 33.1900531,26.745746 33.1900531,27.3945435 C33.1900531,28.0433411 32.6674896,28.5711282 32.0251133,28.5711282 C31.3827371,28.5711282 30.8601736,28.0433411 30.8601736,27.3945435 C30.8601736,26.745746 31.3827371,26.2179589 32.0251133,26.2179589 Z M25.4112957,23.788945 C25.7226401,23.788945 25.9749921,24.0438196 25.9749921,24.3582762 C25.9749921,24.6727328 25.7225698,24.9276074 25.4112957,24.9276074 L16.993748,24.9276074 C16.6824037,24.9276074 16.4300516,24.6727328 16.4300516,24.3582762 C16.4300516,24.0438196 16.682474,23.788945 16.993748,23.788945 L25.4112957,23.788945 Z M10.9812441,21.3598602 C11.2925181,21.3598602 11.5449405,21.6147348 11.5449405,21.9291914 C11.5449405,22.243648 11.2925181,22.4985226 10.9812441,22.4985226 L3.76618314,22.4985226 C3.45483878,22.4985226 3.20248672,22.243648 3.20248672,21.9291914 C3.20248672,21.6147348 3.45490909,21.3598602 3.76618314,21.3598602 L10.9812441,21.3598602 Z" id="Delivery-Order" fill="#FFFFFF" fill-rule="nonzero"></path>
    </g>
</svg>